<svg xmlns="http://www.w3.org/2000/svg" viewBox="0 0 400 500" width="400" height="500">
  <!-- Gradients -->
  <defs>
    <linearGradient id="lockGradient" x1="0%" y1="0%" x2="100%" y2="100%">
      <stop offset="0%" stop-color="#41D1FF" />
      <stop offset="100%" stop-color="#BD34FE" />
    </linearGradient>
    <linearGradient id="hookGradient" x1="0%" y1="0%" x2="100%" y2="100%">
      <stop offset="0%" stop-color="#FFEA83" />
      <stop offset="100%" stop-color="#FFA800" />
    </linearGradient>
  </defs>

  <!-- Lock Hook -->
  <path
    d="M150 80 C150 40, 250 40, 250 80 V160 C250 180, 210 180, 210 160 V100 H190 V160 C190 180, 150 180, 150 160 Z"
    fill="url(#hookGradient)"
  />

  <!-- Lock Body (Globe as Circle) -->
  <circle cx="200" cy="280" r="120" fill="url(#lockGradient)" />

  <!-- Globe Lines -->
  <!-- Horizontal -->
  <circle cx="200" cy="280" r="80" fill="none" stroke="#FFF" stroke-width="4" />
  <circle cx="200" cy="280" r="60" fill="none" stroke="#FFF" stroke-width="4" />
  <circle cx="200" cy="280" r="40" fill="none" stroke="#FFF" stroke-width="4" />
  
  <!-- Vertical -->
  <path d="M200 160 Q160 280, 200 400 Q240 280, 200 160 Z" fill="none" stroke="#FFF" stroke-width="4" />
  <path d="M120 280 Q200 240, 280 280 Q200 320, 120 280 Z" fill="none" stroke="#FFF" stroke-width="4" />
  
  <!-- Vertical Overlay -->
  <line x1="200" y1="160" x2="200" y2="400" stroke="#FFF" stroke-width="4" />
  <line x1="120" y1="280" x2="280" y2="280" stroke="#FFF" stroke-width="4" />
</svg>